<svg id="レイヤー_1" data-name="レイヤー 1" xmlns="http://www.w3.org/2000/svg" viewBox="0 0 1024 1024"><defs><style>.cls-1{fill:#ff7f7f;}.cls-2,.cls-3{fill:#fff;}.cls-3{stroke:#ff7f7f;stroke-miterlimit:10;stroke-width:30px;}</style></defs><title>アートボード 9111</title><rect class="cls-1" width="1024" height="1024" rx="150" ry="150"/><path class="cls-2" d="M530.57,93.39l.07,2.3,0,1.92,0,3.7v7.19c0,4.74-.12,9.41-.24,14.07q-.39,14-1.2,27.7c-1.07,18.36-2.66,36.58-4.67,54.73q-6.06,54.44-17.45,107.89C492,384.08,469.71,454,438.88,520.2L436,526.39l-1.46,3.09-1.47,3-5.9,12.11c-2,4-4,8-6,12l-3,6-3.09,6c-8.16,15.92-16.68,31.58-25.31,47.15s-17.55,30.92-26.56,46.2-18.28,30.38-27.64,45.41q-28.12,45-58,88.77Q262.61,818,247.26,839.56q-7.66,10.8-15.49,21.52l-7.85,10.7-8,10.78a23.35,23.35,0,0,1-38.28-26.71l.3-.46,7-10.68,7-10.89q7-10.92,13.84-21.94,13.74-22,27-44.35,26.58-44.62,51.33-90.16,12.31-22.79,24.15-45.76c7.82-15.34,15.53-30.73,22.94-46.22s14.65-31,21.5-46.66l2.59-5.86L357.8,527c1.67-3.92,3.39-7.83,5-11.76l4.87-11.79,1.22-2.95,1.15-2.92,2.29-5.83c24.15-62.34,40.36-127.8,50-194.13,4.79-33.17,8-66.6,9.46-100,.74-16.69,1.09-33.38,1-50-.06-8.29-.25-16.55-.57-24.72-.16-4.08-.35-8.14-.59-12.14l-.39-5.91-.22-2.85-.11-1.34-.06-.62,0-.26c0-.08,0-.19,0-.1a50,50,0,1,1,99.8-6.34Z"/><path class="cls-2" d="M969.63,296.44c-.57.92-.79,1.23-1.13,1.76l-.9,1.34L965.9,302c-1.12,1.64-2.2,3.13-3.3,4.68q-3.29,4.52-6.56,8.83c-4.38,5.76-8.84,11.29-13.35,16.75q-13.56,16.31-28,31.42A713,713,0,0,1,854,420.41a730.66,730.66,0,0,1-137.5,90.2,731.8,731.8,0,0,1-75,32.8,733.55,733.55,0,0,1-77.88,24,706,706,0,0,1-79.86,15.06q-20.16,2.61-40.54,3.95c-6.81.41-13.62.75-20.5.92-3.45.08-6.91.13-10.4.13l-5.31,0-2.74,0-3.08-.1a26.56,26.56,0,0,1-.72-53.06l1.7-.09,3.89-.21,4.4-.3c3-.22,6-.49,9-.79,6.05-.59,12.14-1.35,18.22-2.18q18.29-2.56,36.48-6.31a643.39,643.39,0,0,0,71.67-19.12,663,663,0,0,0,68.86-26.94,661.05,661.05,0,0,0,65-34.38,648,648,0,0,0,115.56-89.16,621.39,621.39,0,0,0,49-53.33c7.56-9.3,14.79-18.8,21.6-28.42,3.39-4.8,6.7-9.64,9.8-14.45,1.55-2.4,3-4.79,4.49-7.15.69-1.15,1.42-2.34,2-3.43.33-.57.65-1.11.92-1.61.13-.24.31-.54.39-.71s.29-.53.14-.31a50,50,0,0,1,86,51.11Z"/><path class="cls-2" d="M803.1,916.87l-1.46-.49-1.12-.39-2.06-.76-3.88-1.47c-2.53-1-5-2-7.4-3-4.84-2-9.57-4.07-14.24-6.2-9.34-4.24-18.43-8.74-27.4-13.45a558,558,0,0,1-52-31.11,482,482,0,0,1-91.79-79.88c-13-15.29-25.62-30.81-36.82-47.19-5.83-8-11-16.43-16.42-24.7-2.64-4.17-5.1-8.44-7.65-12.65l-3.78-6.33-3.58-6.44-3.58-6.43c-1.19-2.15-2.39-4.29-3.5-6.48l-6.74-13-6.4-13.22c-1.08-2.19-2.07-4.43-3.08-6.66l-3-6.69c-1-2.22-2-4.47-2.93-6.73l-2.86-6.77c-1.9-4.51-3.66-9.11-5.48-13.66s-3.49-9.21-5.11-13.94l-1.24-3.52-1.2-3.61c-.4-1.2-.8-2.39-1.2-3.67l-1.27-4.08L544.38,555l1,2.46,1.21,2.84,1.24,2.88,1.33,2.92c1.72,3.89,3.64,7.81,5.48,11.71s3.86,7.79,5.9,11.65l3.06,5.78c1,1.93,2,3.86,3.12,5.75l3.2,5.72c1.07,1.9,2.11,3.81,3.25,5.68l6.7,11.25,7,11.06c1.14,1.85,2.37,3.65,3.59,5.45l3.65,5.41,3.65,5.4,3.81,5.28c2.57,3.5,5,7.06,7.66,10.5,5.35,6.81,10.5,13.74,16.15,20.23,10.9,13.33,22.84,25.58,34.87,37.49a396.33,396.33,0,0,0,80.85,58.75,465.23,465.23,0,0,0,45.39,22c7.74,3.24,15.54,6.29,23.34,9,3.89,1.38,7.78,2.67,11.61,3.89,1.92.6,3.82,1.18,5.66,1.71l2.69.76,1.23.32a4.52,4.52,0,0,0,.54.13l.22.06h0l-.06,0Z"/><circle class="cls-3" cx="196.88" cy="868.98" r="100"/><circle class="cls-3" cx="817.45" cy="868.98" r="100"/><path class="cls-2" d="M483.65,46.27A451.82,451.82,0,0,1,576,51.33a385.09,385.09,0,0,1,89.08,25.44,369.67,369.67,0,0,1,41.53,20.75L709.11,99l2.47,1.51,5,3c3.29,2,6.5,4.2,9.75,6.29s6.39,4.37,9.53,6.63l4.68,3.43,2.34,1.71,2.29,1.78a379.1,379.1,0,0,1,35,30.44A389.61,389.61,0,0,1,811,188.29C849.31,236.72,875.87,294,889.19,354a406.68,406.68,0,0,1,9.73,91.54,338.13,338.13,0,0,1-3.63,46.06l-.87,5.71-1,5.69c-.63,3.8-1.5,7.56-2.25,11.33-1.71,7.51-3.52,15-5.73,22.38A339.68,339.68,0,0,1,869.51,580c-3.18,7-6.48,14-10.13,20.71-1.75,3.42-3.69,6.74-5.55,10.1-1,1.67-2,3.31-2.93,5s-1.95,3.31-3,4.93a355.87,355.87,0,0,1-58.09,71.13,367.58,367.58,0,0,1-74,54.06,374.44,374.44,0,0,1-84.9,34.22,384.88,384.88,0,0,1-181.35,3.81,372.83,372.83,0,0,1-85.95-30.39,367.22,367.22,0,0,1-39.5-22.84c-3.16-2.12-6.31-4.25-9.4-6.47l-1.16-.82-.59-.41-.66-.51c-.85-.68-1.54-1.31-2.26-2-1.43-1.3-2.81-2.61-4.18-3.93q-4.11-4-8.11-8-2-2-4-4.09l-2-2.1c-.66-.71-1.31-1.43-2-2.27a2.48,2.48,0,0,1,3.82-3.16l.07.08c1,1.26,2.4,2.67,3.68,4s2.61,2.68,3.94,4q4,4,8,7.88c1.36,1.29,2.73,2.57,4.09,3.81.68.61,1.39,1.24,2,1.74l.47.36.58.39,1.15.8c3.08,2.15,6.21,4.22,9.34,6.28a366.48,366.48,0,0,0,124,51,377.28,377.28,0,0,0,177.62-5.67A365,365,0,0,0,711,737.35,357,357,0,0,0,782.36,684a344.27,344.27,0,0,0,55.47-69.48c1-1.57,1.91-3.18,2.84-4.79s1.87-3.2,2.77-4.82c1.76-3.27,3.6-6.49,5.25-9.81,3.45-6.57,6.55-13.31,9.55-20.09a325.94,325.94,0,0,0,14.85-41.87c2-7.11,3.7-14.34,5.27-21.57.68-3.64,1.48-7.25,2-10.91l.92-5.48.77-5.49a324.44,324.44,0,0,0,3-44.26,385.23,385.23,0,0,0-2.61-44.39,401,401,0,0,0-7.63-43.82c-13.41-57.78-39.57-112.65-76.74-158.65a374.11,374.11,0,0,0-29.84-32.7,360.13,360.13,0,0,0-33.62-28.7l-2.2-1.68-2.25-1.61-4.49-3.22c-3-2.13-6.09-4.15-9.13-6.22s-6.19-4-9.34-5.9l-4.74-2.84-2.37-1.41L697.71,113A350.22,350.22,0,0,0,658,93.6a366.63,366.63,0,0,0-85-23.38,432.23,432.23,0,0,0-88.37-4h0a10,10,0,1,1-1.08-20Z"/></svg>